<svg height="496pt" viewBox="0 0 496 496" width="496pt" xmlns="http://www.w3.org/2000/svg"><path d="m488 248c0 132.546875-107.453125 240-240 240s-240-107.453125-240-240 107.453125-240 240-240 240 107.453125 240 240zm0 0" fill="#85d3c1"/><path d="m416 224v101.921875l-.238281.398437c-6.960938-4-15.121094-6.320312-23.761719-6.320312v-8c0-7.121094-3.039062-13.519531-8-17.839844v-59.601562l31.921875-10.878906zm0 0" fill="#f9d48a"/><path d="m104 312v8c-8.800781 0-16.960938 2.320312-24 6.480469v-102.480469l.078125-.320312 31.921875 10.878906v59.601562c-4.960938 4.320313-8 10.71875-8 17.839844zm0 0" fill="#f9d48a"/><g fill="#ff958a"><path d="m112 234.558594-31.921875-10.878906-8-2.71875c.320313-18.480469 3.441406-36.320313 9.042969-52.960938h60.71875c-8.800782 16.71875-13.839844 35.761719-13.839844 56v.078125c0 7.761719-7.679688 13.28125-15.121094 10.800781zm0 0"/><path d="m384 234.558594-.878906.320312c-7.441406 2.480469-15.121094-3.039062-15.121094-10.800781 0-.078125 0-.078125 0-.078125 0-57.359375-40.238281-105.359375-94.078125-117.199219-7.042969-11.28125-19.601563-18.800781-33.921875-18.800781-.640625 0-1.359375 0-2 .078125 1.28125-5.117187 2-10.558594 2-16.078125 0-8.320312-1.601562-16.238281-4.480469-23.519531l.082031-.082031c4.078126-.238282 8.238282-.398438 12.398438-.398438 96.160156 0 174.238281 77.121094 175.921875 172.960938l-8 2.71875zm0 0"/><path d="m425.921875 334.078125c8.71875 8.640625 14.078125 20.640625 14.078125 33.921875 0 26.480469-21.519531 48-48 48v-96c8.640625 0 16.800781 2.320312 23.761719 6.320312 3.757812 2.078126 7.117187 4.71875 10.160156 7.757813zm0 0"/><path d="m104 320v96c-26.480469 0-48-21.519531-48-48 0-13.28125 5.359375-25.28125 14.078125-33.921875 2.960937-2.957031 6.242187-5.519531 9.921875-7.597656 7.039062-4.160157 15.199219-6.480469 24-6.480469zm0 0"/></g><path d="m392 416v8c0 8.320312-4.160156 15.601562-10.558594 19.921875-3.839844 2.558594-8.480468 4.078125-13.441406 4.078125h-16c-13.28125 0-24-10.71875-24-24v-112c0-13.28125 10.71875-24 24-24h16c6.160156 0 11.761719 2.320312 16 6.160156 4.960938 4.320313 8 10.71875 8 17.839844zm0 0" fill="#f5f7fa"/><path d="m168 408v16c0 13.28125-10.71875 24-24 24h-16c-4.960938 0-9.601562-1.519531-13.441406-4.078125-6.398438-4.320313-10.558594-11.601563-10.558594-19.921875v-112c0-7.121094 3.039062-13.519531 8-17.839844 4.238281-3.839844 9.839844-6.160156 16-6.160156h16c13.28125 0 24 10.71875 24 24zm0 0" fill="#f5f7fa"/><path d="m248 328c44.160156 0 80 35.839844 80 80 0 42.640625-33.359375 77.519531-75.441406 79.921875-1.519532.078125-3.039063.078125-4.558594.078125s-3.039062 0-4.558594-.078125c-42.082031-2.402344-75.441406-37.28125-75.441406-79.921875 0-44.160156 35.839844-80 80-80zm0 0" fill="#f9d48a"/><path d="m273.921875 106.800781c3.839844 6.160157 6.078125 13.4375 6.078125 21.199219 0 22.078125-17.921875 40-40 40h-192c-8.640625 0-16.71875-2.800781-23.28125-7.519531-10.078125-7.199219-16.71875-19.039063-16.71875-32.480469 0-22.078125 17.921875-40 40-40h.640625c3.839844-22.71875 23.519531-40 47.359375-40 6.800781 0 13.359375 1.441406 19.199219 4 8.402343-25.519531 32.402343-44 60.800781-44 8.558594 0 16.71875 1.679688 24.238281 4.800781 16.082031 6.558594 28.882813 19.519531 35.28125 35.679688 2.878907 7.28125 4.480469 15.199219 4.480469 23.519531 0 5.519531-.71875 10.960938-2 16.078125.640625-.078125 1.359375-.078125 2-.078125 14.320312 0 26.878906 7.519531 33.921875 18.800781zm0 0" fill="#f5f7fa"/><path d="m240 384v33.472656c-2.511719-.898437-5.183594-1.472656-8-1.472656-13.230469 0-24 10.769531-24 24s10.769531 24 24 24 24-10.769531 24-24v-56c0-4.414062 3.585938-8 8-8h24v-16h-24c-13.230469 0-24 10.769531-24 24zm-8 64c-4.414062 0-8-3.585938-8-8s3.585938-8 8-8 8 3.585938 8 8-3.585938 8-8 8zm0 0" fill="#232323"/><path d="m176 48v-16c-22.054688 0-40 17.945312-40 40h16c0-13.230469 10.769531-24 24-24zm0 0" fill="#232323"/><path d="m248 0c-15.839844 0-31.65625 1.558594-47.105469 4.527344-7.765625-2.878906-16.132812-4.527344-24.894531-4.527344-28.425781 0-53.777344 16.550781-65.40625 41.9375-4.746094-1.289062-9.625-1.9375-14.59375-1.9375-25.289062 0-46.921875 16.640625-53.742188 40.375-23.769531 2.855469-42.257812 23.105469-42.257812 47.625 0 13.726562 5.816406 26.089844 15.089844 34.847656-9.96875 27.230469-15.089844 55.847656-15.089844 85.152344 0 136.753906 111.246094 248 248 248s248-111.246094 248-248-111.246094-248-248-248zm0 16c127.921875 0 232 104.078125 232 232 0 42.894531-11.742188 83.070312-32.121094 117.585938-.773437-17.96875-10.015625-33.769532-23.878906-43.464844v-92.753906l8.023438-2.734376-.101563-5.832031c-1.714844-99.6875-84.21875-180.800781-183.921875-180.800781-2.511719 0-4.984375.160156-7.472656.265625-4.335938-8.777344-10.375-16.554687-17.734375-22.875 8.359375-.902344 16.773437-1.390625 25.207031-1.390625zm88 296.007812c0-8.824218 7.175781-16 16-16h16c8.824219 0 16 7.175782 16 16v112c0 8.824219-7.175781 16-16 16h-16c-8.824219 0-16-7.175781-16-16zm-88 167.992188c-39.703125 0-72-32.296875-72-72s32.296875-72 72-72 72 32.296875 72 72-32.296875 72-72 72zm-118.617188-304c-6.136718 15.183594-9.382812 31.542969-9.382812 48.054688 0 1.511718-.894531 2.394531-1.433594 2.769531-.527344.390625-1.636718.945312-3.085937.464843l-35.207031-12c.679687-13.386718 3.039062-26.527343 6.839843-39.28125h42.269531zm-25.382812 64.273438v50.789062c-4.921875 5.625-8 12.898438-8 20.945312v.640626c-2.726562.390624-5.40625.945312-8 1.71875v-79.550782zm-8 88.542968v78.382813c-18.230469-3.71875-32-19.871094-32-39.191407 0-19.320312 13.769531-35.472656 32-39.191406zm32 111.191406c-8.824219 0-16-7.175781-16-16v-112c0-8.824218 7.175781-16 16-16h16c8.824219 0 16 7.175782 16 16v112c0 8.824219-7.175781 16-16 16zm120-120.007812c-29.761719 0-56.0625 14.886719-72 37.558594v-45.550782c0-17.648437-14.351562-32-32-32h-16c-2.777344 0-5.425781.464844-8 1.136719v-38.015625c2.800781-.503906 5.496094-1.585937 7.863281-3.28125 5.089844-3.640625 8.128907-9.535156 8.136719-15.847656 0-16.632812 3.902344-33.070312 10.984375-48h93.015625c26.472656 0 48-21.527344 48-48 0-3.039062-.3125-6.007812-.855469-8.894531 43.054688 16.101562 72.855469 57.765625 72.855469 104.964843.007812 6.242188 3.046875 12.144532 8.136719 15.777344 2.367187 1.695313 5.070312 2.785156 7.863281 3.28125v38.015625c-2.574219-.671875-5.222656-1.136719-8-1.136719h-16c-17.648438 0-32 14.351563-32 32v45.550782c-15.9375-22.671875-42.238281-37.558594-72-37.558594zm-1.839844-263.9375c.617188-.007812 1.222656-.0625 1.839844-.0625 89.097656 0 163.152344 70.929688 167.726562 159.28125l-35.214843 12c-1.433594.480469-2.535157-.074219-3.078125-.464844-.539063-.367187-1.433594-1.25-1.433594-2.816406 0-58.808594-40.601562-110.128906-97.191406-124.136719-7.34375-10.09375-18.496094-17.199219-31.34375-19.222656.335937-2.863281.535156-5.746094.535156-8.640625 0-5.480469-.671875-10.800781-1.839844-15.9375zm153.839844 272.753906c18.230469 3.71875 32 19.871094 32 39.191406 0 19.320313-13.769531 35.472657-32 39.191407zm0-16.167968v-.640626c0-8.046874-3.078125-15.320312-8-20.945312v-50.796875l16-5.449219v79.550782c-2.59375-.773438-5.273438-1.328126-8-1.71875zm-352-216.648438c17.648438 0 32 14.351562 32 32h16c0-22.726562-15.886719-41.769531-37.128906-46.710938 5.898437-15.015624 20.359375-25.289062 37.128906-25.289062 5.535156 0 10.921875 1.136719 16.007812 3.359375l8.0625 3.527344 2.753907-8.359375c7.566406-23.039063 28.945312-38.527344 53.175781-38.527344 30.871094 0 56 25.128906 56 56 0 2.976562-.3125 5.929688-.777344 8.839844-22.285156 4.144531-39.222656 23.695312-39.222656 47.160156h16c0-17.648438 14.351562-32 32-32s32 14.351562 32 32-14.351562 32-32 32h-192c-17.648438 0-32-14.351562-32-32s14.351562-32 32-32zm-19.207031 75.960938c5.886719 2.582031 12.375 4.039062 19.207031 4.039062h22.472656c-3.929687 14.566406-6.136718 29.574219-6.394531 44.808594l-.09375 5.832031 8.015625 2.726563v92.753906c-13.855469 9.695312-23.105469 25.488281-23.878906 43.464844-20.378906-34.515626-32.121094-74.691407-32.121094-117.585938 0-26.121094 4.328125-51.65625 12.792969-76.039062zm116.382812 283.925781c9.207031-.34375 17.351563-4.582031 22.976563-11.125 4.777344 10.335937 11.480468 19.566406 19.679687 27.269531-14.855469-3.984375-29.128906-9.421875-42.65625-16.144531zm182.671875-11.117188c5.632813 6.542969 13.777344 10.78125 22.976563 11.125-13.527344 6.722657-27.800781 12.160157-42.65625 16.152344 8.199219-7.710937 14.902343-16.949219 19.679687-27.277344zm0 0" fill="#232323"/></svg>