<svg id="Capa_1" enable-background="new 0 0 512 512" height="512" viewBox="0 0 512 512" width="512" xmlns="http://www.w3.org/2000/svg"><g><path d="m85.574 487.999v-184.959c0-29.904 24.242-54.146 54.146-54.146h62.195c29.904 0 54.146 24.242 54.146 54.146l20 109.112-20 75.847z" fill="#e06a50"/><path d="m220.858 201.639c0 27.636-22.404 50.04-50.04 50.04s-50.04-22.404-50.04-50.04v-28.355c0-27.636 22.404-50.04 50.04-50.04s50.04 22.404 50.04 50.04z" fill="#e3a76f"/><path d="m256 474v-170.96c0-29.904 24.242-54.146 54.146-54.146h62.195c29.904 0 54.146 24.242 54.146 54.146v170.96z" fill="#9cd2fc"/><path d="m391.284 201.639c0 27.636-22.404 50.04-50.04 50.04s-50.04-22.404-50.04-50.04v-28.355c0-27.636 22.404-50.04 50.04-50.04s50.04 22.404 50.04 50.04z" fill="#864927"/><path d="m170.756 512h-170.488v-59.848c0-27.614 22.386-50 50-50h70.488c27.614 0 50 22.386 50 50l10 28.598z" fill="#a0be28"/><path d="m511.732 512h-170.488l-10-37.75 10-22.098c0-27.614 22.386-50 50-50h70.488c27.614 0 50 22.386 50 50z" fill="#738c28"/><g><g><g><path d="m146.37 14.76h30v76.537h-30z" fill="#ffe477" transform="matrix(.687 -.727 .727 .687 11.962 133.835)"/></g></g><g><path d="m312.362 38.029h76.537v30h-76.537z" fill="#ffb655" transform="matrix(.727 -.687 .687 .727 59.441 255.42)"/></g></g><path d="m241 0h15v66.278h-15z" fill="#ffe477"/><g fill="#ffb655"><path d="m271 0h-15l10 33.139-10 33.139h15z"/><path d="m256 0v66.278l10-33.139z"/><path d="m220.756 402.152c-27.614 0-50 22.386-50 50v59.848h85.244l10-60.716-10-49.132z"/></g><path d="m341.244 452.152c0-27.614-22.386-50-50-50h-35.244v109.848h85.244z" fill="#e06a50"/><path d="m241 0h15v66.278h-15z" fill="#ffe477"/><path d="m271 0h-15l10 33.139-10 33.139h15z" fill="#ffb655"/><path d="m256 0v66.278l10-33.139z" fill="#ffb655"/><path d="m135.552 354.897c0 27.636-22.404 50.04-50.04 50.04s-50.04-22.404-50.04-50.04v-28.355c0-27.636 22.404-50.04 50.04-50.04s50.04 22.404 50.04 50.04z" fill="#b35f30"/><path d="m476.528 354.897c0 27.636-22.404 50.04-50.04 50.04s-50.04-22.404-50.04-50.04v-28.355c0-27.636 22.404-50.04 50.04-50.04s50.04 22.404 50.04 50.04z" fill="#e3a76f"/><path d="m205.96 326.542v28.355c0 27.636 22.404 50.04 50.04 50.04l20-64.217-20-64.217c-27.636-.001-50.04 22.403-50.04 50.039z" fill="#b35f30"/><path d="m256 276.502v128.435c27.636 0 50.04-22.404 50.04-50.04v-28.355c0-27.636-22.404-50.04-50.04-50.04z" fill="#864927"/></g></svg>